<?xml version="1.0"?>
<svg width="613" height="415" xmlns="http://www.w3.org/2000/svg" xmlns:svg="http://www.w3.org/2000/svg" preserveAspectRatio="xMidYMid meet" version="1.0">
 <metadata>Created by potrace 1.16, written by Peter Selinger 2001-2019</metadata>
 <g class="layer">
  <title>Layer 3</title>
  <rect fill="#ffffff" height="79" id="svg_5" stroke="#000000" width="148" x="242.33" y="112.67"/>
 </g>
 <g class="layer">
  <title>Layer 1</title>
  <g fill="#000000" id="svg_1" transform="translate(0.000000,415.000000) scale(0.100000,-0.100000)">
   <path d="m4805,3849l-389,-69l-126,-122c-249,-245 -256,-251 -279,-243c-20,6 -21,13 -21,111c0,57 -2,104 -5,104c-2,0 -51,-32 -107,-70l-102,-71l-33,60l-34,59l-113,-5l-114,-6l-56,32c-31,18 -79,59 -108,91c-38,43 -68,66 -112,85l-61,27l-55,-63l-56,-62l-70,76l-69,76l-51,-62c-35,-42 -62,-90 -84,-149l-33,-88l-75,41c-70,38 -200,89 -228,89c-6,0 -19,-30 -28,-68c-24,-98 -20,-94 -110,-77c-43,8 -80,15 -82,15c-2,0 -4,-20 -4,-45c0,-25 -3,-45 -6,-45c-4,0 -75,65 -160,145c-84,80 -158,145 -164,145c-6,0 -178,25 -383,55c-205,30 -383,56 -397,57c-39,3 -852,-512 -880,-557c-87,-140 63,-142 305,-4c114,65 372,234 513,337l108,79l209,-38c116,-21 262,-48 326,-59l116,-22l164,-195c90,-108 170,-204 177,-214c21,-30 -1,-56 -68,-80c-62,-22 -64,-25 -75,-99c-3,-25 -15,-56 -26,-69l-19,-23l-36,28c-20,16 -47,37 -60,47c-20,15 -82,23 -396,47c-205,17 -391,30 -413,30c-36,-1 -75,-26 -430,-285c-214,-157 -400,-299 -412,-317c-29,-40 -38,-85 -23,-103c59,-72 351,100 782,459l127,106l328,-37c328,-36 363,-43 363,-78c0,-29 -43,-107 -85,-153c-31,-34 -53,-73 -69,-119c-13,-37 -33,-90 -45,-116c-14,-32 -21,-70 -21,-109c0,-68 8,-66 -98,-27l-64,24l-392,-99c-216,-54 -397,-101 -403,-105c-16,-10 -564,-792 -574,-818c-10,-28 -12,-84 -3,-107c10,-26 56,-18 111,19c94,63 244,256 443,572c65,104 127,198 137,209c15,18 76,34 334,89l317,68l108,-58c60,-32 111,-60 114,-62c3,-2 -3,-9 -12,-14c-16,-9 -16,-14 5,-70c12,-33 43,-86 68,-117c26,-31 50,-71 53,-89l7,-31l-77,20l-78,19l-386,-146l-385,-146l-238,-436c-224,-412 -237,-440 -237,-489c0,-49 16,-84 39,-84c24,0 107,71 150,128c90,123 248,411 362,664l52,117l111,39c481,168 512,178 553,163c21,-8 109,-41 195,-74l157,-59l-14,-35c-8,-20 -15,-39 -15,-44c0,-5 26,-22 57,-37c56,-26 58,-29 76,-90c10,-34 24,-62 30,-62c7,0 54,14 105,31c51,17 96,29 98,26c3,-3 -12,-68 -34,-144l-39,-138l81,-26c44,-15 125,-47 178,-73c153,-72 196,-86 270,-86l67,0l78,80l77,81l43,-123c24,-67 45,-123 47,-125c2,-3 29,3 61,12c49,15 68,15 138,5c45,-7 104,-10 132,-8l50,3l36,95c20,52 39,95 43,95c3,0 42,-32 85,-72l79,-72l58,9c33,6 62,10 67,10c4,0 4,68 1,151l-7,152l114,-86l114,-86l3,104l3,104l76,3l76,3l22,64c16,49 31,73 64,103l44,38l-18,86l-19,86l52,46c28,26 62,65 75,87c14,22 35,49 48,61c13,12 103,49 199,83l175,61l309,-113l308,-114l87,-194c162,-362 297,-598 388,-678c74,-66 113,-53 113,38c0,51 -12,77 -227,491l-227,437l-376,152c-206,83 -385,151 -397,151c-12,0 -59,-9 -105,-20c-120,-29 -114,-32 -127,55c-20,137 -20,137 59,200c45,36 72,65 76,83c3,15 9,41 14,57c6,25 2,37 -26,72l-34,41l123,6c67,3 197,9 290,12l167,6l148,-143c328,-318 547,-485 662,-504c45,-7 63,6 62,43c-2,65 -32,97 -411,421l-374,321l-317,0l-317,0l-97,29c-54,16 -101,32 -104,36c-12,12 42,140 95,228c29,49 51,93 48,98c-4,5 -5,9 -3,9c2,0 131,22 286,49l283,50l129,-95c328,-240 603,-402 723,-426c92,-19 120,17 75,96c-20,33 -87,80 -443,307c-231,148 -427,267 -435,265c-8,-3 -185,-28 -393,-57c-360,-50 -378,-51 -396,-35c-11,10 -24,16 -28,13c-5,-3 -49,-7 -98,-8l-90,-2l-8,30c-9,29 0,41 148,227c87,109 163,199 169,202c6,2 152,33 324,69l313,65l152,-104c394,-268 655,-403 763,-394c56,5 65,28 33,86c-24,45 -41,57 -454,305c-236,141 -436,256 -444,256c-9,-1 -191,-32 -406,-70zm-1857,-1065c73,-30 132,-106 146,-189l8,-40l-24,35c-44,66 -124,87 -186,50c-49,-30 -74,-76 -69,-129c10,-97 103,-153 192,-116c40,17 -5,-23 -51,-46c-56,-26 -142,-28 -202,-4c-82,34 -142,128 -142,224c0,159 180,277 328,215zm640,0c110,-46 171,-172 138,-286c-31,-105 -115,-170 -224,-171c-60,0 -136,26 -161,57c-13,15 -12,16 15,6c67,-26 152,20 172,93c28,100 -58,192 -160,173c-33,-6 -89,-54 -101,-86c-3,-8 -6,-3 -6,13c-1,34 22,91 54,133c55,72 186,105 273,68z" id="svg_2"/>
  </g>
 </g>
 <g class="layer">
  <title>Layer 2</title>
  <ellipse cx="316.33" cy="204.67" fill="#ff0000" id="svg_4" rx="35" ry="32" stroke="#000000"/>
 </g>
</svg>